<svg width="176" height="26" viewBox="0 0 176 26" fill="none" xmlns="http://www.w3.org/2000/svg">
<path d="M78.4324 25.1218C76.827 25.1218 75.4006 25.0296 74.1532 24.8452C72.9166 24.6608 71.794 24.3571 70.7852 23.934C69.7764 23.511 69.028 22.9578 68.5398 22.2744C68.0409 21.5802 67.7372 20.7287 67.6287 19.72C67.5202 18.7003 67.7317 17.5126 68.2632 16.1567H76.0894C75.9592 16.8292 76.2467 17.3282 76.9517 17.6536C77.6676 17.9682 78.5951 18.1254 79.734 18.1254C82.5326 18.1254 83.9318 17.659 83.9318 16.7262V16.6936C83.9318 16.5852 83.921 16.493 83.8993 16.417C83.8776 16.3411 83.8071 16.2272 83.6878 16.0753C83.5793 15.9126 83.3732 15.7771 83.0695 15.6686C82.7766 15.5493 82.3861 15.4679 81.898 15.4245L79.9943 15.2293C74.061 14.7629 71.0943 12.7399 71.0943 9.16035C71.0943 6.27503 72.3255 4.02968 74.7878 2.42432C77.2609 0.808106 80.553 0 84.664 0C87.2565 0 89.4421 0.347106 91.2211 1.04132C93 1.72468 94.204 2.72804 94.8331 4.05138C95.4731 5.37472 95.3267 6.99093 94.3938 8.90002H86.828C86.8714 8.76985 86.8714 8.63426 86.828 8.49325C86.7846 8.34139 86.6816 8.17326 86.5188 7.98886C86.367 7.79362 86.1663 7.62549 85.9168 7.48447C85.6782 7.34346 85.3365 7.22414 84.8918 7.12652C84.4471 7.01805 83.9372 6.96382 83.3624 6.96382C82.2993 6.96382 81.4533 7.10483 80.8241 7.38685C80.2059 7.65803 79.8967 8.02683 79.8967 8.49325C79.8967 9.10069 80.4391 9.46949 81.5238 9.59965L82.7603 9.76236C83.0532 9.80575 83.5251 9.87625 84.1759 9.97388C84.8267 10.0607 85.3799 10.1366 85.8355 10.2017C86.2911 10.2667 86.8497 10.3806 87.5114 10.5433C88.1839 10.6952 88.7425 10.8579 89.1872 11.0315C89.632 11.205 90.1092 11.4437 90.619 11.7474C91.1289 12.0511 91.5465 12.3873 91.8719 12.7561C92.1973 13.1141 92.4576 13.5643 92.6529 14.1066C92.859 14.6381 92.962 15.2239 92.962 15.8638C92.962 17.5994 92.5769 19.0854 91.8068 20.322C91.0367 21.5477 89.9574 22.5022 88.5689 23.1856C87.1805 23.8581 85.6565 24.3462 83.9969 24.65C82.3482 24.9645 80.4933 25.1218 78.4324 25.1218Z" fill="url(#paint0_linear_6989_17159)"/>
<path d="M51.5293 24.9754C48.2751 24.9754 45.7315 24.1184 43.8983 22.4046C42.0652 20.6908 41.1486 18.2122 41.1486 14.9689C41.1486 13.0273 41.5662 11.1562 42.4015 9.35559C43.2367 7.54413 44.381 5.96046 45.8345 4.60458C47.2881 3.2487 49.0724 2.15857 51.1876 1.33419C53.3028 0.509812 55.5752 0.0976236 58.005 0.0976236C61.5628 0.0976236 64.3613 1.05217 66.4006 2.96125C68.4507 4.85948 69.2534 7.08856 68.8086 9.64846H59.6157C59.3229 9.16035 58.8836 8.759 58.2978 8.44444C57.7121 8.11903 57.0287 7.95632 56.2477 7.95632C54.4905 7.95632 53.0533 8.52579 51.936 9.66473C50.8188 10.8037 50.2602 12.0728 50.2602 13.4721C50.2602 14.6544 50.6398 15.5927 51.3991 16.2869C52.1692 16.9702 53.0262 17.3119 53.9698 17.3119C56.7142 17.3119 58.2599 16.5906 58.607 15.1479H53.8722L55.2552 10.9013H68.6947L64.4156 24.1944H60.0876L60.9174 20.6637C60.0822 21.9762 58.8565 23.0229 57.2402 23.8039C55.6349 24.5849 53.7312 24.9754 51.5293 24.9754Z" fill="url(#paint1_linear_6989_17159)"/>
<path d="M27 24.0751H36.0226L43.8149 0.862342H34.6282L27 24.0751Z" fill="url(#paint2_linear_6989_17159)"/>
<path d="M175.811 0.894531L173.338 8.47663H165.382L160.24 24.2266H151.129L156.27 8.47663H148.102L150.543 0.894531H175.811Z" fill="white"/>
<path d="M146.467 8.11868H133.532L133.028 9.69692H145.979L144.108 15.3428H131.222L130.701 16.9862H143.555L141.196 24.2266H119.23L126.764 0.894531H148.827L146.467 8.11868Z" fill="white"/>
<path d="M29.4057 5.984C29.4057 7.18802 29.0423 8.30527 28.3155 9.33574C27.5996 10.3554 26.477 11.1418 24.9475 11.695L24.7197 12.1994C25.5875 12.8068 26.1624 13.2949 26.4444 13.6637C27.0844 14.4664 27.4044 15.524 27.4044 16.8365C27.4044 21.8153 23.25 24.3047 14.9411 24.3047H0.00469971L7.53799 0.972656H21.9375C26.9163 0.972656 29.4057 2.6431 29.4057 5.984ZM22.4907 8.89644V8.8639C22.4907 8.73373 22.4798 8.61984 22.4581 8.52221C22.4473 8.41374 22.3497 8.29443 22.1653 8.16426C21.9809 8.02325 21.7097 7.95274 21.3517 7.95274H12.3541L11.6056 10.2794H20.7823C21.3463 10.2794 21.7693 10.1276 22.0514 9.82386C22.3442 9.52014 22.4907 9.211 22.4907 8.89644ZM20.7985 16.0067C20.6901 15.3559 20.305 15.0033 19.6433 14.9491H10.1087L9.32775 17.3409H19.0738C19.5945 17.3409 20.0121 17.2161 20.3267 16.9667C20.6412 16.7172 20.7985 16.3972 20.7985 16.0067Z" fill="url(#paint3_linear_6989_17159)"/>
<path d="M15.0328 0.962891H7.44144L0 24.3192H12.9202C10.091 22.3448 10.5709 19.4255 13.5492 17.3139H9.34092L10.091 14.9472H16.7687C14.196 13.4893 14.6793 11.5214 15.2956 10.1658H11.6573L12.4285 7.95505H20.1859C15.2956 6.67651 14.0224 3.72029 15.0328 0.962891Z" fill="url(#paint4_linear_6989_17159)"/>
<path d="M121.723 5.87755C121.723 7.08158 121.36 8.19883 120.633 9.2293C119.917 10.2489 118.795 11.0353 117.265 11.5885L117.037 12.0929C117.905 12.7004 118.48 13.1885 118.762 13.5573C119.402 14.36 119.722 15.4175 119.722 16.73C119.722 21.7088 115.568 24.1982 107.259 24.1982H92.3223L99.8556 0.866211H114.255C119.234 0.866211 121.723 2.53666 121.723 5.87755ZM114.808 8.78999V8.75745C114.808 8.62729 114.797 8.51339 114.776 8.41577C114.765 8.3073 114.667 8.18798 114.483 8.05782C114.298 7.9168 114.027 7.8463 113.669 7.8463H104.672L103.923 10.173H113.1C113.664 10.173 114.087 10.0211 114.369 9.71741C114.662 9.4137 114.808 9.10456 114.808 8.78999ZM113.116 15.9002C113.008 15.2494 112.623 14.8969 111.961 14.8427H102.426L101.645 17.2344H111.391C111.912 17.2344 112.33 17.1097 112.644 16.8602C112.959 16.6107 113.116 16.2907 113.116 15.9002Z" fill="white"/>
<defs>
<linearGradient id="paint0_linear_6989_17159" x1="29.5" y1="-2.53681" x2="57.833" y2="57.0617" gradientUnits="userSpaceOnUse">
<stop stop-color="#F9820F"/>
<stop offset="0.376686" stop-color="#F7D449"/>
<stop offset="1" stop-color="#F9820F"/>
</linearGradient>
<linearGradient id="paint1_linear_6989_17159" x1="29.5" y1="-2.53681" x2="57.833" y2="57.0617" gradientUnits="userSpaceOnUse">
<stop stop-color="#F9820F"/>
<stop offset="0.376686" stop-color="#F7D449"/>
<stop offset="1" stop-color="#F9820F"/>
</linearGradient>
<linearGradient id="paint2_linear_6989_17159" x1="29.5" y1="-2.53681" x2="57.833" y2="57.0617" gradientUnits="userSpaceOnUse">
<stop stop-color="#F9820F"/>
<stop offset="0.376686" stop-color="#F7D449"/>
<stop offset="1" stop-color="#F9820F"/>
</linearGradient>
<linearGradient id="paint3_linear_6989_17159" x1="3.60256" y1="3.58246" x2="30.6639" y2="24.9075" gradientUnits="userSpaceOnUse">
<stop offset="0.339207" stop-color="#F7E152"/>
<stop offset="0.934499" stop-color="#F9820F"/>
</linearGradient>
<linearGradient id="paint4_linear_6989_17159" x1="16.413" y1="12.2953" x2="3.53396" y2="12.641" gradientUnits="userSpaceOnUse">
<stop stop-color="#EAA200"/>
<stop offset="1" stop-color="#F5E157"/>
</linearGradient>
</defs>
</svg>
